<?xml version="1.0" encoding="UTF-8" standalone="no"?>
<!DOCTYPE svg PUBLIC "-//W3C//DTD SVG 1.1//EN"
 "http://www.w3.org/Graphics/SVG/1.1/DTD/svg11.dtd">
<!-- Generated by graphviz version 2.40.1 (20161225.0304)
 -->
<!-- Title: dependencies Pages: 1 -->
<svg width="504pt" height="284pt"
 viewBox="0.00 0.00 504.00 284.00" xmlns="http://www.w3.org/2000/svg" xmlns:xlink="http://www.w3.org/1999/xlink">
<g id="graph0" class="graph" transform="scale(1 1) rotate(0) translate(4 280)">
<title>dependencies</title>
<polygon fill="#ffffff" stroke="transparent" points="-4,4 -4,-280 500,-280 500,4 -4,4"/>
<text text-anchor="start" x="227.0091" y="-42.4" font-family="sans-serif" font-weight="bold" font-size="14.00" fill="#000000">Legend</text>
<polygon fill="#ffffb3" stroke="transparent" points="14,-10 14,-30 34,-30 34,-10 14,-10"/>
<text text-anchor="start" x="37.629" y="-15.4" font-family="sans-serif" font-size="14.00" fill="#000000"> &#160;Declarations</text>
<polygon fill="#8dd3c7" stroke="transparent" points="127,-10 127,-30 147,-30 147,-10 127,-10"/>
<text text-anchor="start" x="150.7251" y="-15.4" font-family="sans-serif" font-size="14.00" fill="#000000"> &#160;Module</text>
<polygon fill="#80b1d3" stroke="transparent" points="213,-10 213,-30 233,-30 233,-10 213,-10"/>
<text text-anchor="start" x="236.7812" y="-15.4" font-family="sans-serif" font-size="14.00" fill="#000000"> &#160;Bootstrap</text>
<polygon fill="#fdb462" stroke="transparent" points="310,-10 310,-30 330,-30 330,-10 310,-10"/>
<text text-anchor="start" x="333.6732" y="-15.4" font-family="sans-serif" font-size="14.00" fill="#000000"> &#160;Providers</text>
<polygon fill="#fb8072" stroke="transparent" points="406,-10 406,-30 426,-30 426,-10 406,-10"/>
<text text-anchor="start" x="429.7258" y="-15.4" font-family="sans-serif" font-size="14.00" fill="#000000"> &#160;Exports</text>
<g id="clust1" class="cluster">
<title>cluster_LivroModule</title>
<polygon fill="none" stroke="#000000" stroke-dasharray="1,5" points="43.5,-70 43.5,-268 452.5,-268 452.5,-70 43.5,-70"/>
</g>
<g id="clust2" class="cluster">
<title>cluster_LivroModule_declarations</title>
<polygon fill="none" stroke="#000000" points="197.5,-78 197.5,-130 444.5,-130 444.5,-78 197.5,-78"/>
</g>
<g id="clust6" class="cluster">
<title>cluster_LivroModule_exports</title>
<polygon fill="none" stroke="#000000" points="129.5,-208 129.5,-260 383.5,-260 383.5,-208 129.5,-208"/>
</g>
<g id="clust8" class="cluster">
<title>cluster_LivroModule_providers</title>
<polygon fill="none" stroke="#000000" points="51.5,-78 51.5,-130 189.5,-130 189.5,-78 51.5,-78"/>
</g>
<!-- LivroComponent -->
<g id="node1" class="node">
<title>LivroComponent</title>
<polygon fill="#ffffb3" stroke="#000000" points="436.937,-122 324.063,-122 324.063,-86 436.937,-86 436.937,-122"/>
<text text-anchor="middle" x="380.5" y="-99.8" font-family="Times,serif" font-size="14.00" fill="#000000">LivroComponent</text>
</g>
<!-- LivroModule -->
<g id="node3" class="node">
<title>LivroModule</title>
<polygon fill="#8dd3c7" stroke="#000000" points="300.6543,-187 297.6543,-191 276.6543,-191 273.6543,-187 210.3457,-187 210.3457,-151 300.6543,-151 300.6543,-187"/>
<text text-anchor="middle" x="255.5" y="-164.8" font-family="Times,serif" font-size="14.00" fill="#000000">LivroModule</text>
</g>
<!-- LivroComponent&#45;&gt;LivroModule -->
<g id="edge1" class="edge">
<title>LivroComponent&#45;&gt;LivroModule</title>
<path fill="none" stroke="#000000" d="M349.875,-122.1061C349.875,-141.3391 349.875,-169 349.875,-169 349.875,-169 310.7526,-169 310.7526,-169"/>
<polygon fill="#000000" stroke="#000000" points="310.7526,-165.5001 300.7526,-169 310.7525,-172.5001 310.7526,-165.5001"/>
</g>
<!-- FiltroPorTitulo -->
<g id="node2" class="node">
<title>FiltroPorTitulo</title>
<polygon fill="#ffffb3" stroke="#000000" points="305.7828,-122 205.2172,-122 205.2172,-86 305.7828,-86 305.7828,-122"/>
<text text-anchor="middle" x="255.5" y="-99.8" font-family="Times,serif" font-size="14.00" fill="#000000">FiltroPorTitulo</text>
</g>
<!-- FiltroPorTitulo&#45;&gt;LivroModule -->
<g id="edge2" class="edge">
<title>FiltroPorTitulo&#45;&gt;LivroModule</title>
<path fill="none" stroke="#000000" d="M255.5,-122.1061C255.5,-122.1061 255.5,-140.991 255.5,-140.991"/>
<polygon fill="#000000" stroke="#000000" points="252.0001,-140.9909 255.5,-150.991 259.0001,-140.991 252.0001,-140.9909"/>
</g>
<!-- LivroComponent  -->
<g id="node4" class="node">
<title>LivroComponent </title>
<polygon fill="#fb8072" stroke="#000000" points="375.4362,-252 259.5638,-252 259.5638,-216 375.4362,-216 375.4362,-252"/>
<text text-anchor="middle" x="317.5" y="-229.8" font-family="Times,serif" font-size="14.00" fill="#000000">LivroComponent </text>
</g>
<!-- LivroModule&#45;&gt;LivroComponent  -->
<g id="edge3" class="edge">
<title>LivroModule&#45;&gt;LivroComponent </title>
<path fill="none" stroke="#000000" stroke-dasharray="5,2" d="M280.1794,-187.1061C280.1794,-187.1061 280.1794,-205.991 280.1794,-205.991"/>
<polygon fill="#000000" stroke="#000000" points="276.6794,-205.9909 280.1794,-215.991 283.6794,-205.991 276.6794,-205.9909"/>
</g>
<!-- FiltroPorTitulo  -->
<g id="node5" class="node">
<title>FiltroPorTitulo </title>
<polygon fill="#fb8072" stroke="#000000" points="241.783,-252 137.217,-252 137.217,-216 241.783,-216 241.783,-252"/>
<text text-anchor="middle" x="189.5" y="-229.8" font-family="Times,serif" font-size="14.00" fill="#000000">FiltroPorTitulo </text>
</g>
<!-- LivroModule&#45;&gt;FiltroPorTitulo  -->
<g id="edge4" class="edge">
<title>LivroModule&#45;&gt;FiltroPorTitulo </title>
<path fill="none" stroke="#000000" stroke-dasharray="5,2" d="M225.9073,-187.1061C225.9073,-187.1061 225.9073,-205.991 225.9073,-205.991"/>
<polygon fill="#000000" stroke="#000000" points="222.4073,-205.9909 225.9073,-215.991 229.4073,-205.991 222.4073,-205.9909"/>
</g>
<!-- LivroService -->
<g id="node6" class="node">
<title>LivroService</title>
<ellipse fill="#fdb462" stroke="#000000" cx="120.5" cy="-104" rx="61.3935" ry="18"/>
<text text-anchor="middle" x="120.5" y="-99.8" font-family="Times,serif" font-size="14.00" fill="#000000">LivroService</text>
</g>
<!-- LivroService&#45;&gt;LivroModule -->
<g id="edge5" class="edge">
<title>LivroService&#45;&gt;LivroModule</title>
<path fill="none" stroke="#000000" d="M159.6527,-118.104C159.6527,-137.2211 159.6527,-169 159.6527,-169 159.6527,-169 200.1025,-169 200.1025,-169"/>
<polygon fill="#000000" stroke="#000000" points="200.1026,-172.5001 210.1025,-169 200.1025,-165.5001 200.1026,-172.5001"/>
</g>
</g>
</svg>
