<?xml version="1.0" encoding="UTF-8" standalone="no"?>
<!DOCTYPE svg PUBLIC "-//W3C//DTD SVG 1.1//EN"
 "http://www.w3.org/Graphics/SVG/1.1/DTD/svg11.dtd">
<!-- Generated by graphviz version 2.40.1 (20161225.0304)
 -->
<!-- Title: dependencies Pages: 1 -->
<svg width="1941pt" height="284pt"
 viewBox="0.00 0.00 1941.00 284.00" xmlns="http://www.w3.org/2000/svg" xmlns:xlink="http://www.w3.org/1999/xlink">
<g id="graph0" class="graph" transform="scale(1 1) rotate(0) translate(4 280)">
<title>dependencies</title>
<polygon fill="#ffffff" stroke="transparent" points="-4,4 -4,-280 1937,-280 1937,4 -4,4"/>
<text text-anchor="start" x="945.5091" y="-42.4" font-family="sans-serif" font-weight="bold" font-size="14.00" fill="#000000">Legend</text>
<polygon fill="#ffffb3" stroke="transparent" points="732.5,-10 732.5,-30 752.5,-30 752.5,-10 732.5,-10"/>
<text text-anchor="start" x="756.129" y="-15.4" font-family="sans-serif" font-size="14.00" fill="#000000"> &#160;Declarations</text>
<polygon fill="#8dd3c7" stroke="transparent" points="845.5,-10 845.5,-30 865.5,-30 865.5,-10 845.5,-10"/>
<text text-anchor="start" x="869.2251" y="-15.4" font-family="sans-serif" font-size="14.00" fill="#000000"> &#160;Module</text>
<polygon fill="#80b1d3" stroke="transparent" points="931.5,-10 931.5,-30 951.5,-30 951.5,-10 931.5,-10"/>
<text text-anchor="start" x="955.2812" y="-15.4" font-family="sans-serif" font-size="14.00" fill="#000000"> &#160;Bootstrap</text>
<polygon fill="#fdb462" stroke="transparent" points="1028.5,-10 1028.5,-30 1048.5,-30 1048.5,-10 1028.5,-10"/>
<text text-anchor="start" x="1052.1732" y="-15.4" font-family="sans-serif" font-size="14.00" fill="#000000"> &#160;Providers</text>
<polygon fill="#fb8072" stroke="transparent" points="1124.5,-10 1124.5,-30 1144.5,-30 1144.5,-10 1124.5,-10"/>
<text text-anchor="start" x="1148.2258" y="-15.4" font-family="sans-serif" font-size="14.00" fill="#000000"> &#160;Exports</text>
<g id="clust1" class="cluster">
<title>cluster_AppModule</title>
<polygon fill="none" stroke="#000000" stroke-dasharray="1,5" points="8,-70 8,-268 1925,-268 1925,-70 8,-70"/>
</g>
<g id="clust2" class="cluster">
<title>cluster_AppModule_declarations</title>
<polygon fill="none" stroke="#000000" points="664,-78 664,-130 1917,-130 1917,-78 664,-78"/>
</g>
<g id="clust11" class="cluster">
<title>cluster_AppModule_imports</title>
<polygon fill="none" stroke="#000000" points="16,-78 16,-130 656,-130 656,-78 16,-78"/>
</g>
<g id="clust13" class="cluster">
<title>cluster_AppModule_bootstrap</title>
<polygon fill="none" stroke="#000000" points="744,-208 744,-260 868,-260 868,-208 744,-208"/>
</g>
<!-- AppComponent -->
<g id="node1" class="node">
<title>AppComponent</title>
<polygon fill="#ffffb3" stroke="#000000" points="1908.9399,-122 1803.0601,-122 1803.0601,-86 1908.9399,-86 1908.9399,-122"/>
<text text-anchor="middle" x="1856" y="-99.8" font-family="Times,serif" font-size="14.00" fill="#000000">AppComponent</text>
</g>
<!-- AppModule -->
<g id="node9" class="node">
<title>AppModule</title>
<polygon fill="#8dd3c7" stroke="#000000" points="847.6571,-187 844.6571,-191 823.6571,-191 820.6571,-187 764.3429,-187 764.3429,-151 847.6571,-151 847.6571,-187"/>
<text text-anchor="middle" x="806" y="-164.8" font-family="Times,serif" font-size="14.00" fill="#000000">AppModule</text>
</g>
<!-- AppComponent&#45;&gt;AppModule -->
<g id="edge1" class="edge">
<title>AppComponent&#45;&gt;AppModule</title>
<path fill="none" stroke="#000000" d="M1856,-122.0908C1856,-145.1328 1856,-182 1856,-182 1856,-182 857.8092,-182 857.8092,-182"/>
<polygon fill="#000000" stroke="#000000" points="857.8092,-178.5001 847.8092,-182 857.8092,-185.5001 857.8092,-178.5001"/>
</g>
<!-- CadastroComponent -->
<g id="node2" class="node">
<title>CadastroComponent</title>
<polygon fill="#ffffb3" stroke="#000000" points="1785.594,-122 1654.406,-122 1654.406,-86 1785.594,-86 1785.594,-122"/>
<text text-anchor="middle" x="1720" y="-99.8" font-family="Times,serif" font-size="14.00" fill="#000000">CadastroComponent</text>
</g>
<!-- CadastroComponent&#45;&gt;AppModule -->
<g id="edge2" class="edge">
<title>CadastroComponent&#45;&gt;AppModule</title>
<path fill="none" stroke="#000000" d="M1720,-122.0449C1720,-143.6623 1720,-177 1720,-177 1720,-177 857.9489,-177 857.9489,-177"/>
<polygon fill="#000000" stroke="#000000" points="857.9489,-173.5001 847.9489,-177 857.9489,-180.5001 857.9489,-173.5001"/>
</g>
<!-- CadastroUsuarioComponent -->
<g id="node3" class="node">
<title>CadastroUsuarioComponent</title>
<polygon fill="#ffffb3" stroke="#000000" points="1636.9115,-122 1461.0885,-122 1461.0885,-86 1636.9115,-86 1636.9115,-122"/>
<text text-anchor="middle" x="1549" y="-99.8" font-family="Times,serif" font-size="14.00" fill="#000000">CadastroUsuarioComponent</text>
</g>
<!-- CadastroUsuarioComponent&#45;&gt;AppModule -->
<g id="edge3" class="edge">
<title>CadastroUsuarioComponent&#45;&gt;AppModule</title>
<path fill="none" stroke="#000000" d="M1549,-122.2228C1549,-142.3652 1549,-172 1549,-172 1549,-172 857.807,-172 857.807,-172"/>
<polygon fill="#000000" stroke="#000000" points="857.807,-168.5001 847.807,-172 857.807,-175.5001 857.807,-168.5001"/>
</g>
<!-- ListagemComponent -->
<g id="node4" class="node">
<title>ListagemComponent</title>
<polygon fill="#ffffb3" stroke="#000000" points="1443.9313,-122 1310.0687,-122 1310.0687,-86 1443.9313,-86 1443.9313,-122"/>
<text text-anchor="middle" x="1377" y="-99.8" font-family="Times,serif" font-size="14.00" fill="#000000">ListagemComponent</text>
</g>
<!-- ListagemComponent&#45;&gt;AppModule -->
<g id="edge4" class="edge">
<title>ListagemComponent&#45;&gt;AppModule</title>
<path fill="none" stroke="#000000" d="M1377,-122.2222C1377,-140.8285 1377,-167 1377,-167 1377,-167 857.987,-167 857.987,-167"/>
<polygon fill="#000000" stroke="#000000" points="857.987,-163.5001 847.987,-167 857.987,-170.5001 857.987,-163.5001"/>
</g>
<!-- ListagemUsuarioComponent -->
<g id="node5" class="node">
<title>ListagemUsuarioComponent</title>
<polygon fill="#ffffb3" stroke="#000000" points="1291.7478,-122 1114.2522,-122 1114.2522,-86 1291.7478,-86 1291.7478,-122"/>
<text text-anchor="middle" x="1203" y="-99.8" font-family="Times,serif" font-size="14.00" fill="#000000">ListagemUsuarioComponent</text>
</g>
<!-- ListagemUsuarioComponent&#45;&gt;AppModule -->
<g id="edge5" class="edge">
<title>ListagemUsuarioComponent&#45;&gt;AppModule</title>
<path fill="none" stroke="#000000" d="M1203,-122.0336C1203,-139.0597 1203,-162 1203,-162 1203,-162 857.7356,-162 857.7356,-162"/>
<polygon fill="#000000" stroke="#000000" points="857.7356,-158.5001 847.7356,-162 857.7356,-165.5001 857.7356,-158.5001"/>
</g>
<!-- MenuComponent -->
<g id="node6" class="node">
<title>MenuComponent</title>
<polygon fill="#ffffb3" stroke="#000000" points="1095.9916,-122 982.0084,-122 982.0084,-86 1095.9916,-86 1095.9916,-122"/>
<text text-anchor="middle" x="1039" y="-99.8" font-family="Times,serif" font-size="14.00" fill="#000000">MenuComponent</text>
</g>
<!-- MenuComponent&#45;&gt;AppModule -->
<g id="edge6" class="edge">
<title>MenuComponent&#45;&gt;AppModule</title>
<path fill="none" stroke="#000000" d="M1039,-122.2396C1039,-137.5706 1039,-157 1039,-157 1039,-157 857.9248,-157 857.9248,-157"/>
<polygon fill="#000000" stroke="#000000" points="857.9249,-153.5001 847.9248,-157 857.9248,-160.5001 857.9249,-153.5001"/>
</g>
<!-- ContaUsuarioComponent -->
<g id="node7" class="node">
<title>ContaUsuarioComponent</title>
<polygon fill="#ffffb3" stroke="#000000" points="963.5912,-122 804.4088,-122 804.4088,-86 963.5912,-86 963.5912,-122"/>
<text text-anchor="middle" x="884" y="-99.8" font-family="Times,serif" font-size="14.00" fill="#000000">ContaUsuarioComponent</text>
</g>
<!-- ContaUsuarioComponent&#45;&gt;AppModule -->
<g id="edge7" class="edge">
<title>ContaUsuarioComponent&#45;&gt;AppModule</title>
<path fill="none" stroke="#000000" d="M826.1413,-122.1061C826.1413,-122.1061 826.1413,-140.991 826.1413,-140.991"/>
<polygon fill="#000000" stroke="#000000" points="822.6414,-140.9909 826.1413,-150.991 829.6414,-140.991 822.6414,-140.9909"/>
</g>
<!-- LoginComponent -->
<g id="node8" class="node">
<title>LoginComponent</title>
<polygon fill="#ffffb3" stroke="#000000" points="786.2758,-122 671.7242,-122 671.7242,-86 786.2758,-86 786.2758,-122"/>
<text text-anchor="middle" x="729" y="-99.8" font-family="Times,serif" font-size="14.00" fill="#000000">LoginComponent</text>
</g>
<!-- LoginComponent&#45;&gt;AppModule -->
<g id="edge8" class="edge">
<title>LoginComponent&#45;&gt;AppModule</title>
<path fill="none" stroke="#000000" d="M775.2798,-122.1061C775.2798,-122.1061 775.2798,-140.991 775.2798,-140.991"/>
<polygon fill="#000000" stroke="#000000" points="771.7799,-140.9909 775.2798,-150.991 778.7799,-140.991 771.7799,-140.9909"/>
</g>
<!-- AppComponent  -->
<g id="node16" class="node">
<title>AppComponent </title>
<polygon fill="#80b1d3" stroke="#000000" points="860.439,-252 751.561,-252 751.561,-216 860.439,-216 860.439,-252"/>
<text text-anchor="middle" x="806" y="-229.8" font-family="Times,serif" font-size="14.00" fill="#000000">AppComponent </text>
</g>
<!-- AppModule&#45;&gt;AppComponent  -->
<g id="edge15" class="edge">
<title>AppModule&#45;&gt;AppComponent </title>
<path fill="none" stroke="#000000" stroke-dasharray="1,5" d="M806,-187.1061C806,-187.1061 806,-205.991 806,-205.991"/>
<polygon fill="#000000" stroke="#000000" points="802.5001,-205.9909 806,-215.991 809.5001,-205.991 802.5001,-205.9909"/>
</g>
<!-- LivroModule -->
<g id="node10" class="node">
<title>LivroModule</title>
<polygon fill="#8dd3c7" stroke="#000000" points="648.1543,-122 645.1543,-126 624.1543,-126 621.1543,-122 557.8457,-122 557.8457,-86 648.1543,-86 648.1543,-122"/>
<text text-anchor="middle" x="603" y="-99.8" font-family="Times,serif" font-size="14.00" fill="#000000">LivroModule</text>
</g>
<!-- LivroModule&#45;&gt;AppModule -->
<g id="edge9" class="edge">
<title>LivroModule&#45;&gt;AppModule</title>
<path fill="none" stroke="#000000" d="M603,-122.2396C603,-137.5706 603,-157 603,-157 603,-157 753.9383,-157 753.9383,-157"/>
<polygon fill="#000000" stroke="#000000" points="753.9383,-160.5001 763.9383,-157 753.9382,-153.5001 753.9383,-160.5001"/>
</g>
<!-- PainelModule -->
<g id="node11" class="node">
<title>PainelModule</title>
<polygon fill="#8dd3c7" stroke="#000000" points="539.0439,-122 536.0439,-126 515.0439,-126 512.0439,-122 444.9561,-122 444.9561,-86 539.0439,-86 539.0439,-122"/>
<text text-anchor="middle" x="492" y="-99.8" font-family="Times,serif" font-size="14.00" fill="#000000">PainelModule</text>
</g>
<!-- PainelModule&#45;&gt;AppModule -->
<g id="edge10" class="edge">
<title>PainelModule&#45;&gt;AppModule</title>
<path fill="none" stroke="#000000" d="M492,-122.0336C492,-139.0597 492,-162 492,-162 492,-162 754.3032,-162 754.3032,-162"/>
<polygon fill="#000000" stroke="#000000" points="754.3033,-165.5001 764.3032,-162 754.3032,-158.5001 754.3033,-165.5001"/>
</g>
<!-- routing -->
<g id="node12" class="node">
<title>routing</title>
<polygon fill="#8dd3c7" stroke="#000000" points="427.4435,-122 424.4435,-126 403.4435,-126 400.4435,-122 370.5565,-122 370.5565,-86 427.4435,-86 427.4435,-122"/>
<text text-anchor="middle" x="399" y="-99.8" font-family="Times,serif" font-size="14.00" fill="#000000">routing</text>
</g>
<!-- routing&#45;&gt;AppModule -->
<g id="edge11" class="edge">
<title>routing&#45;&gt;AppModule</title>
<path fill="none" stroke="#000000" d="M399,-122.2222C399,-140.8285 399,-167 399,-167 399,-167 753.9768,-167 753.9768,-167"/>
<polygon fill="#000000" stroke="#000000" points="753.9768,-170.5001 763.9768,-167 753.9768,-163.5001 753.9768,-170.5001"/>
</g>
<!-- BotaoModule -->
<g id="node13" class="node">
<title>BotaoModule</title>
<polygon fill="#8dd3c7" stroke="#000000" points="352.4916,-122 349.4916,-126 328.4916,-126 325.4916,-122 259.5084,-122 259.5084,-86 352.4916,-86 352.4916,-122"/>
<text text-anchor="middle" x="306" y="-99.8" font-family="Times,serif" font-size="14.00" fill="#000000">BotaoModule</text>
</g>
<!-- BotaoModule&#45;&gt;AppModule -->
<g id="edge12" class="edge">
<title>BotaoModule&#45;&gt;AppModule</title>
<path fill="none" stroke="#000000" d="M306,-122.2228C306,-142.3652 306,-172 306,-172 306,-172 754.2303,-172 754.2303,-172"/>
<polygon fill="#000000" stroke="#000000" points="754.2303,-175.5001 764.2303,-172 754.2302,-168.5001 754.2303,-175.5001"/>
</g>
<!-- UsuarioModule -->
<g id="node14" class="node">
<title>UsuarioModule</title>
<polygon fill="#8dd3c7" stroke="#000000" points="241.8669,-122 238.8669,-126 217.8669,-126 214.8669,-122 138.1331,-122 138.1331,-86 241.8669,-86 241.8669,-122"/>
<text text-anchor="middle" x="190" y="-99.8" font-family="Times,serif" font-size="14.00" fill="#000000">UsuarioModule</text>
</g>
<!-- UsuarioModule&#45;&gt;AppModule -->
<g id="edge13" class="edge">
<title>UsuarioModule&#45;&gt;AppModule</title>
<path fill="none" stroke="#000000" d="M190,-122.0449C190,-143.6623 190,-177 190,-177 190,-177 754.1441,-177 754.1441,-177"/>
<polygon fill="#000000" stroke="#000000" points="754.1441,-180.5001 764.1441,-177 754.1441,-173.5001 754.1441,-180.5001"/>
</g>
<!-- ModalModule -->
<g id="node15" class="node">
<title>ModalModule</title>
<polygon fill="#8dd3c7" stroke="#000000" points="120.0997,-122 117.0997,-126 96.0997,-126 93.0997,-122 23.9003,-122 23.9003,-86 120.0997,-86 120.0997,-122"/>
<text text-anchor="middle" x="72" y="-99.8" font-family="Times,serif" font-size="14.00" fill="#000000">ModalModule</text>
</g>
<!-- ModalModule&#45;&gt;AppModule -->
<g id="edge14" class="edge">
<title>ModalModule&#45;&gt;AppModule</title>
<path fill="none" stroke="#000000" d="M72,-122.0908C72,-145.1328 72,-182 72,-182 72,-182 754.1677,-182 754.1677,-182"/>
<polygon fill="#000000" stroke="#000000" points="754.1677,-185.5001 764.1677,-182 754.1676,-178.5001 754.1677,-185.5001"/>
</g>
</g>
</svg>
