<?xml version="1.0" encoding="UTF-8" standalone="no"?>
<!DOCTYPE svg PUBLIC "-//W3C//DTD SVG 1.1//EN"
 "http://www.w3.org/Graphics/SVG/1.1/DTD/svg11.dtd">
<!-- Generated by graphviz version 2.40.1 (20161225.0304)
 -->
<!-- Title: dependencies Pages: 1 -->
<svg width="2841pt" height="366pt"
 viewBox="0.00 0.00 2841.00 366.00" xmlns="http://www.w3.org/2000/svg" xmlns:xlink="http://www.w3.org/1999/xlink">
<g id="graph0" class="graph" transform="scale(1 1) rotate(0) translate(4 362)">
<title>dependencies</title>
<polygon fill="#ffffff" stroke="transparent" points="-4,4 -4,-362 2837,-362 2837,4 -4,4"/>
<text text-anchor="start" x="1395.5091" y="-42.4" font-family="sans-serif" font-weight="bold" font-size="14.00" fill="#000000">Legend</text>
<polygon fill="#ffffb3" stroke="transparent" points="1182.5,-10 1182.5,-30 1202.5,-30 1202.5,-10 1182.5,-10"/>
<text text-anchor="start" x="1206.129" y="-15.4" font-family="sans-serif" font-size="14.00" fill="#000000"> &#160;Declarations</text>
<polygon fill="#8dd3c7" stroke="transparent" points="1295.5,-10 1295.5,-30 1315.5,-30 1315.5,-10 1295.5,-10"/>
<text text-anchor="start" x="1319.2251" y="-15.4" font-family="sans-serif" font-size="14.00" fill="#000000"> &#160;Module</text>
<polygon fill="#80b1d3" stroke="transparent" points="1381.5,-10 1381.5,-30 1401.5,-30 1401.5,-10 1381.5,-10"/>
<text text-anchor="start" x="1405.2812" y="-15.4" font-family="sans-serif" font-size="14.00" fill="#000000"> &#160;Bootstrap</text>
<polygon fill="#fdb462" stroke="transparent" points="1478.5,-10 1478.5,-30 1498.5,-30 1498.5,-10 1478.5,-10"/>
<text text-anchor="start" x="1502.1732" y="-15.4" font-family="sans-serif" font-size="14.00" fill="#000000"> &#160;Providers</text>
<polygon fill="#fb8072" stroke="transparent" points="1574.5,-10 1574.5,-30 1594.5,-30 1594.5,-10 1574.5,-10"/>
<text text-anchor="start" x="1598.2258" y="-15.4" font-family="sans-serif" font-size="14.00" fill="#000000"> &#160;Exports</text>
<g id="clust1" class="cluster">
<title>cluster_AppModule</title>
<polygon fill="none" stroke="#000000" stroke-dasharray="1,5" points="8,-146 8,-350 1925,-350 1925,-146 8,-146"/>
</g>
<g id="clust2" class="cluster">
<title>cluster_AppModule_declarations</title>
<polygon fill="none" stroke="#000000" points="16,-154 16,-206 1269,-206 1269,-154 16,-154"/>
</g>
<g id="clust11" class="cluster">
<title>cluster_AppModule_imports</title>
<polygon fill="none" stroke="#000000" points="1277,-154 1277,-206 1917,-206 1917,-154 1277,-154"/>
</g>
<g id="clust13" class="cluster">
<title>cluster_AppModule_bootstrap</title>
<polygon fill="none" stroke="#000000" points="1028,-290 1028,-342 1152,-342 1152,-290 1028,-290"/>
</g>
<g id="clust15" class="cluster">
<title>cluster_BotaoModule</title>
<polygon fill="none" stroke="#000000" stroke-dasharray="1,5" points="2233,-214 2233,-282 2521,-282 2521,-214 2233,-214"/>
</g>
<g id="clust16" class="cluster">
<title>cluster_BotaoModule_declarations</title>
<polygon fill="none" stroke="#000000" points="2383,-222 2383,-274 2513,-274 2513,-222 2383,-222"/>
</g>
<g id="clust19" class="cluster">
<title>cluster_BotaoModule_exports</title>
<polygon fill="none" stroke="#000000" points="2241,-222 2241,-274 2375,-274 2375,-222 2241,-222"/>
</g>
<g id="clust22" class="cluster">
<title>cluster_LivroModule</title>
<polygon fill="none" stroke="#000000" stroke-dasharray="1,5" points="793,-70 793,-138 1464,-138 1464,-70 793,-70"/>
</g>
<g id="clust23" class="cluster">
<title>cluster_LivroModule_declarations</title>
<polygon fill="none" stroke="#000000" points="1209,-78 1209,-130 1456,-130 1456,-78 1209,-78"/>
</g>
<g id="clust27" class="cluster">
<title>cluster_LivroModule_exports</title>
<polygon fill="none" stroke="#000000" points="947,-78 947,-130 1201,-130 1201,-78 947,-78"/>
</g>
<g id="clust29" class="cluster">
<title>cluster_LivroModule_providers</title>
<polygon fill="none" stroke="#000000" points="801,-78 801,-130 939,-130 939,-78 801,-78"/>
</g>
<g id="clust30" class="cluster">
<title>cluster_ModalModule</title>
<polygon fill="none" stroke="#000000" stroke-dasharray="1,5" points="2529,-214 2529,-282 2825,-282 2825,-214 2529,-214"/>
</g>
<g id="clust31" class="cluster">
<title>cluster_ModalModule_declarations</title>
<polygon fill="none" stroke="#000000" points="2683,-222 2683,-274 2817,-274 2817,-222 2683,-222"/>
</g>
<g id="clust34" class="cluster">
<title>cluster_ModalModule_exports</title>
<polygon fill="none" stroke="#000000" points="2537,-222 2537,-274 2675,-274 2675,-222 2537,-222"/>
</g>
<g id="clust37" class="cluster">
<title>cluster_PainelModule</title>
<polygon fill="none" stroke="#000000" stroke-dasharray="1,5" points="1933,-214 1933,-282 2225,-282 2225,-214 1933,-214"/>
</g>
<g id="clust38" class="cluster">
<title>cluster_PainelModule_declarations</title>
<polygon fill="none" stroke="#000000" points="2085,-222 2085,-274 2217,-274 2217,-222 2085,-222"/>
</g>
<g id="clust41" class="cluster">
<title>cluster_PainelModule_exports</title>
<polygon fill="none" stroke="#000000" points="1941,-222 1941,-274 2077,-274 2077,-222 1941,-222"/>
</g>
<g id="clust44" class="cluster">
<title>cluster_UsuarioModule</title>
<polygon fill="none" stroke="#000000" stroke-dasharray="1,5" points="1472,-70 1472,-138 1950,-138 1950,-70 1472,-70"/>
</g>
<g id="clust45" class="cluster">
<title>cluster_UsuarioModule_declarations</title>
<polygon fill="none" stroke="#000000" points="1800,-78 1800,-130 1942,-130 1942,-78 1800,-78"/>
</g>
<g id="clust48" class="cluster">
<title>cluster_UsuarioModule_exports</title>
<polygon fill="none" stroke="#000000" points="1646,-78 1646,-130 1792,-130 1792,-78 1646,-78"/>
</g>
<g id="clust50" class="cluster">
<title>cluster_UsuarioModule_providers</title>
<polygon fill="none" stroke="#000000" points="1480,-78 1480,-130 1638,-130 1638,-78 1480,-78"/>
</g>
<!-- AppComponent -->
<g id="node1" class="node">
<title>AppComponent</title>
<polygon fill="#ffffb3" stroke="#000000" points="622.9399,-198 517.0601,-198 517.0601,-162 622.9399,-162 622.9399,-198"/>
<text text-anchor="middle" x="570" y="-175.8" font-family="Times,serif" font-size="14.00" fill="#000000">AppComponent</text>
</g>
<!-- AppModule -->
<g id="node9" class="node">
<title>AppModule</title>
<polygon fill="#8dd3c7" stroke="#000000" points="1131.6571,-266 1128.6571,-270 1107.6571,-270 1104.6571,-266 1048.3429,-266 1048.3429,-230 1131.6571,-230 1131.6571,-266"/>
<text text-anchor="middle" x="1090" y="-243.8" font-family="Times,serif" font-size="14.00" fill="#000000">AppModule</text>
</g>
<!-- AppComponent&#45;&gt;AppModule -->
<g id="edge1" class="edge">
<title>AppComponent&#45;&gt;AppModule</title>
<path fill="none" stroke="#000000" d="M570,-198.0348C570,-217.5762 570,-246 570,-246 570,-246 1038.3252,-246 1038.3252,-246"/>
<polygon fill="#000000" stroke="#000000" points="1038.3253,-249.5001 1048.3252,-246 1038.3252,-242.5001 1038.3253,-249.5001"/>
</g>
<!-- CadastroComponent -->
<g id="node2" class="node">
<title>CadastroComponent</title>
<polygon fill="#ffffb3" stroke="#000000" points="499.594,-198 368.406,-198 368.406,-162 499.594,-162 499.594,-198"/>
<text text-anchor="middle" x="434" y="-175.8" font-family="Times,serif" font-size="14.00" fill="#000000">CadastroComponent</text>
</g>
<!-- CadastroComponent&#45;&gt;AppModule -->
<g id="edge2" class="edge">
<title>CadastroComponent&#45;&gt;AppModule</title>
<path fill="none" stroke="#000000" d="M434,-198.2843C434,-219.3211 434,-251 434,-251 434,-251 1038.2168,-251 1038.2168,-251"/>
<polygon fill="#000000" stroke="#000000" points="1038.2168,-254.5001 1048.2168,-251 1038.2168,-247.5001 1038.2168,-254.5001"/>
</g>
<!-- CadastroUsuarioComponent -->
<g id="node3" class="node">
<title>CadastroUsuarioComponent</title>
<polygon fill="#ffffb3" stroke="#000000" points="350.9115,-198 175.0885,-198 175.0885,-162 350.9115,-162 350.9115,-198"/>
<text text-anchor="middle" x="263" y="-175.8" font-family="Times,serif" font-size="14.00" fill="#000000">CadastroUsuarioComponent</text>
</g>
<!-- CadastroUsuarioComponent&#45;&gt;AppModule -->
<g id="edge3" class="edge">
<title>CadastroUsuarioComponent&#45;&gt;AppModule</title>
<path fill="none" stroke="#000000" d="M263,-198.0109C263,-220.4852 263,-256 263,-256 263,-256 1038.1375,-256 1038.1375,-256"/>
<polygon fill="#000000" stroke="#000000" points="1038.1376,-259.5001 1048.1375,-256 1038.1375,-252.5001 1038.1376,-259.5001"/>
</g>
<!-- ListagemComponent -->
<g id="node4" class="node">
<title>ListagemComponent</title>
<polygon fill="#ffffb3" stroke="#000000" points="157.9313,-198 24.0687,-198 24.0687,-162 157.9313,-162 157.9313,-198"/>
<text text-anchor="middle" x="91" y="-175.8" font-family="Times,serif" font-size="14.00" fill="#000000">ListagemComponent</text>
</g>
<!-- ListagemComponent&#45;&gt;AppModule -->
<g id="edge4" class="edge">
<title>ListagemComponent&#45;&gt;AppModule</title>
<path fill="none" stroke="#000000" d="M91,-198.3802C91,-222.2785 91,-261 91,-261 91,-261 1038.0297,-261 1038.0297,-261"/>
<polygon fill="#000000" stroke="#000000" points="1038.0298,-264.5001 1048.0297,-261 1038.0297,-257.5001 1038.0298,-264.5001"/>
</g>
<!-- ListagemUsuarioComponent -->
<g id="node5" class="node">
<title>ListagemUsuarioComponent</title>
<polygon fill="#ffffb3" stroke="#000000" points="1260.7478,-198 1083.2522,-198 1083.2522,-162 1260.7478,-162 1260.7478,-198"/>
<text text-anchor="middle" x="1172" y="-175.8" font-family="Times,serif" font-size="14.00" fill="#000000">ListagemUsuarioComponent</text>
</g>
<!-- ListagemUsuarioComponent&#45;&gt;AppModule -->
<g id="edge5" class="edge">
<title>ListagemUsuarioComponent&#45;&gt;AppModule</title>
<path fill="none" stroke="#000000" d="M1107.4772,-198.2228C1107.4772,-198.2228 1107.4772,-219.7269 1107.4772,-219.7269"/>
<polygon fill="#000000" stroke="#000000" points="1103.9773,-219.7269 1107.4772,-229.7269 1110.9773,-219.727 1103.9773,-219.7269"/>
</g>
<!-- MenuComponent -->
<g id="node6" class="node">
<title>MenuComponent</title>
<polygon fill="#ffffb3" stroke="#000000" points="1064.9916,-198 951.0084,-198 951.0084,-162 1064.9916,-162 1064.9916,-198"/>
<text text-anchor="middle" x="1008" y="-175.8" font-family="Times,serif" font-size="14.00" fill="#000000">MenuComponent</text>
</g>
<!-- MenuComponent&#45;&gt;AppModule -->
<g id="edge6" class="edge">
<title>MenuComponent&#45;&gt;AppModule</title>
<path fill="none" stroke="#000000" d="M1056.5838,-198.2228C1056.5838,-198.2228 1056.5838,-219.7269 1056.5838,-219.7269"/>
<polygon fill="#000000" stroke="#000000" points="1053.0839,-219.7269 1056.5838,-229.7269 1060.0839,-219.727 1053.0839,-219.7269"/>
</g>
<!-- ContaUsuarioComponent -->
<g id="node7" class="node">
<title>ContaUsuarioComponent</title>
<polygon fill="#ffffb3" stroke="#000000" points="932.5912,-198 773.4088,-198 773.4088,-162 932.5912,-162 932.5912,-198"/>
<text text-anchor="middle" x="853" y="-175.8" font-family="Times,serif" font-size="14.00" fill="#000000">ContaUsuarioComponent</text>
</g>
<!-- ContaUsuarioComponent&#45;&gt;AppModule -->
<g id="edge7" class="edge">
<title>ContaUsuarioComponent&#45;&gt;AppModule</title>
<path fill="none" stroke="#000000" d="M853,-198.027C853,-214.3976 853,-236 853,-236 853,-236 1038.1747,-236 1038.1747,-236"/>
<polygon fill="#000000" stroke="#000000" points="1038.1747,-239.5001 1048.1747,-236 1038.1747,-232.5001 1038.1747,-239.5001"/>
</g>
<!-- LoginComponent -->
<g id="node8" class="node">
<title>LoginComponent</title>
<polygon fill="#ffffb3" stroke="#000000" points="755.2758,-198 640.7242,-198 640.7242,-162 755.2758,-162 755.2758,-198"/>
<text text-anchor="middle" x="698" y="-175.8" font-family="Times,serif" font-size="14.00" fill="#000000">LoginComponent</text>
</g>
<!-- LoginComponent&#45;&gt;AppModule -->
<g id="edge8" class="edge">
<title>LoginComponent&#45;&gt;AppModule</title>
<path fill="none" stroke="#000000" d="M698,-198.302C698,-216.2699 698,-241 698,-241 698,-241 1038.0491,-241 1038.0491,-241"/>
<polygon fill="#000000" stroke="#000000" points="1038.0492,-244.5001 1048.0491,-241 1038.0491,-237.5001 1038.0492,-244.5001"/>
</g>
<!-- AppComponent  -->
<g id="node16" class="node">
<title>AppComponent </title>
<polygon fill="#80b1d3" stroke="#000000" points="1144.439,-334 1035.561,-334 1035.561,-298 1144.439,-298 1144.439,-334"/>
<text text-anchor="middle" x="1090" y="-311.8" font-family="Times,serif" font-size="14.00" fill="#000000">AppComponent </text>
</g>
<!-- AppModule&#45;&gt;AppComponent  -->
<g id="edge15" class="edge">
<title>AppModule&#45;&gt;AppComponent </title>
<path fill="none" stroke="#000000" stroke-dasharray="1,5" d="M1090,-266.2228C1090,-266.2228 1090,-287.7269 1090,-287.7269"/>
<polygon fill="#000000" stroke="#000000" points="1086.5001,-287.7269 1090,-297.7269 1093.5001,-287.727 1086.5001,-287.7269"/>
</g>
<!-- LivroModule -->
<g id="node10" class="node">
<title>LivroModule</title>
<polygon fill="#8dd3c7" stroke="#000000" points="1375.1543,-198 1372.1543,-202 1351.1543,-202 1348.1543,-198 1284.8457,-198 1284.8457,-162 1375.1543,-162 1375.1543,-198"/>
<text text-anchor="middle" x="1330" y="-175.8" font-family="Times,serif" font-size="14.00" fill="#000000">LivroModule</text>
</g>
<!-- LivroModule&#45;&gt;AppModule -->
<g id="edge9" class="edge">
<title>LivroModule&#45;&gt;AppModule</title>
<path fill="none" stroke="#000000" d="M1330,-198.0225C1330,-215.3734 1330,-239 1330,-239 1330,-239 1141.8048,-239 1141.8048,-239"/>
<polygon fill="#000000" stroke="#000000" points="1141.8048,-235.5001 1131.8048,-239 1141.8048,-242.5001 1141.8048,-235.5001"/>
</g>
<!-- LivroComponent  -->
<g id="node21" class="node">
<title>LivroComponent </title>
<polygon fill="#fb8072" stroke="#000000" points="1192.9362,-122 1077.0638,-122 1077.0638,-86 1192.9362,-86 1192.9362,-122"/>
<text text-anchor="middle" x="1135" y="-99.8" font-family="Times,serif" font-size="14.00" fill="#000000">LivroComponent </text>
</g>
<!-- LivroModule&#45;&gt;LivroComponent  -->
<g id="edge20" class="edge">
<title>LivroModule&#45;&gt;LivroComponent </title>
<path fill="none" stroke="#000000" stroke-dasharray="5,2" d="M1304.3041,-161.8903C1304.3041,-152.103 1304.3041,-142 1304.3041,-142 1304.3041,-142 1138.0471,-142 1138.0471,-142 1138.0471,-142 1138.0471,-132.1097 1138.0471,-132.1097"/>
<polygon fill="#000000" stroke="#000000" points="1141.5472,-132.1096 1138.0471,-122.1097 1134.5472,-132.1097 1141.5472,-132.1096"/>
</g>
<!-- FiltroPorTitulo  -->
<g id="node22" class="node">
<title>FiltroPorTitulo </title>
<polygon fill="#fb8072" stroke="#000000" points="1059.283,-122 954.717,-122 954.717,-86 1059.283,-86 1059.283,-122"/>
<text text-anchor="middle" x="1007" y="-99.8" font-family="Times,serif" font-size="14.00" fill="#000000">FiltroPorTitulo </text>
</g>
<!-- LivroModule&#45;&gt;FiltroPorTitulo  -->
<g id="edge21" class="edge">
<title>LivroModule&#45;&gt;FiltroPorTitulo </title>
<path fill="none" stroke="#000000" stroke-dasharray="5,2" d="M1297.7604,-161.9672C1297.7604,-155.1474 1297.7604,-149 1297.7604,-149 1297.7604,-149 1007,-149 1007,-149 1007,-149 1007,-132.0439 1007,-132.0439"/>
<polygon fill="#000000" stroke="#000000" points="1010.5001,-132.0439 1007,-122.0439 1003.5001,-132.044 1010.5001,-132.0439"/>
</g>
<!-- PainelModule -->
<g id="node11" class="node">
<title>PainelModule</title>
<polygon fill="#8dd3c7" stroke="#000000" points="1683.0439,-198 1680.0439,-202 1659.0439,-202 1656.0439,-198 1588.9561,-198 1588.9561,-162 1683.0439,-162 1683.0439,-198"/>
<text text-anchor="middle" x="1636" y="-175.8" font-family="Times,serif" font-size="14.00" fill="#000000">PainelModule</text>
</g>
<!-- PainelModule&#45;&gt;AppModule -->
<g id="edge10" class="edge">
<title>PainelModule&#45;&gt;AppModule</title>
<path fill="none" stroke="#000000" d="M1612.3643,-198.0449C1612.3643,-219.6623 1612.3643,-253 1612.3643,-253 1612.3643,-253 1141.8643,-253 1141.8643,-253"/>
<polygon fill="#000000" stroke="#000000" points="1141.8643,-249.5001 1131.8643,-253 1141.8642,-256.5001 1141.8643,-249.5001"/>
</g>
<!-- PainelComponent  -->
<g id="node27" class="node">
<title>PainelComponent </title>
<polygon fill="#fb8072" stroke="#000000" points="2068.8255,-266 1949.1745,-266 1949.1745,-230 2068.8255,-230 2068.8255,-266"/>
<text text-anchor="middle" x="2009" y="-243.8" font-family="Times,serif" font-size="14.00" fill="#000000">PainelComponent </text>
</g>
<!-- PainelModule&#45;&gt;PainelComponent  -->
<g id="edge26" class="edge">
<title>PainelModule&#45;&gt;PainelComponent </title>
<path fill="none" stroke="#000000" stroke-dasharray="5,2" d="M1659.6357,-198.0091C1659.6357,-214.0494 1659.6357,-235 1659.6357,-235 1659.6357,-235 1938.9421,-235 1938.9421,-235"/>
<polygon fill="#000000" stroke="#000000" points="1938.9422,-238.5001 1948.9421,-235 1938.9421,-231.5001 1938.9422,-238.5001"/>
</g>
<!-- routing -->
<g id="node12" class="node">
<title>routing</title>
<polygon fill="#8dd3c7" stroke="#000000" points="1571.4435,-198 1568.4435,-202 1547.4435,-202 1544.4435,-198 1514.5565,-198 1514.5565,-162 1571.4435,-162 1571.4435,-198"/>
<text text-anchor="middle" x="1543" y="-175.8" font-family="Times,serif" font-size="14.00" fill="#000000">routing</text>
</g>
<!-- routing&#45;&gt;AppModule -->
<g id="edge11" class="edge">
<title>routing&#45;&gt;AppModule</title>
<path fill="none" stroke="#000000" d="M1543,-198.2228C1543,-218.3652 1543,-248 1543,-248 1543,-248 1141.8052,-248 1141.8052,-248"/>
<polygon fill="#000000" stroke="#000000" points="1141.8052,-244.5001 1131.8052,-248 1141.8051,-251.5001 1141.8052,-244.5001"/>
</g>
<!-- BotaoModule -->
<g id="node13" class="node">
<title>BotaoModule</title>
<polygon fill="#8dd3c7" stroke="#000000" points="1794.4916,-198 1791.4916,-202 1770.4916,-202 1767.4916,-198 1701.5084,-198 1701.5084,-162 1794.4916,-162 1794.4916,-198"/>
<text text-anchor="middle" x="1748" y="-175.8" font-family="Times,serif" font-size="14.00" fill="#000000">BotaoModule</text>
</g>
<!-- BotaoModule&#45;&gt;AppModule -->
<g id="edge12" class="edge">
<title>BotaoModule&#45;&gt;AppModule</title>
<path fill="none" stroke="#000000" d="M1748,-198.2479C1748,-221.0179 1748,-257 1748,-257 1748,-257 1141.66,-257 1141.66,-257"/>
<polygon fill="#000000" stroke="#000000" points="1141.6601,-253.5001 1131.66,-257 1141.66,-260.5001 1141.6601,-253.5001"/>
</g>
<!-- BotaoComponent  -->
<g id="node18" class="node">
<title>BotaoComponent </title>
<polygon fill="#fb8072" stroke="#000000" points="2367.2745,-266 2248.7255,-266 2248.7255,-230 2367.2745,-230 2367.2745,-266"/>
<text text-anchor="middle" x="2308" y="-243.8" font-family="Times,serif" font-size="14.00" fill="#000000">BotaoComponent </text>
</g>
<!-- BotaoModule&#45;&gt;BotaoComponent  -->
<g id="edge17" class="edge">
<title>BotaoModule&#45;&gt;BotaoComponent </title>
<path fill="none" stroke="#000000" stroke-dasharray="5,2" d="M1771.2479,-198.1944C1771.2479,-206.2782 1771.2479,-214 1771.2479,-214 1771.2479,-214 2308,-214 2308,-214 2308,-214 2308,-219.8056 2308,-219.8056"/>
<polygon fill="#000000" stroke="#000000" points="2304.5001,-219.8055 2308,-229.8056 2311.5001,-219.8056 2304.5001,-219.8055"/>
</g>
<!-- UsuarioModule -->
<g id="node14" class="node">
<title>UsuarioModule</title>
<polygon fill="#8dd3c7" stroke="#000000" points="1496.8669,-198 1493.8669,-202 1472.8669,-202 1469.8669,-198 1393.1331,-198 1393.1331,-162 1496.8669,-162 1496.8669,-198"/>
<text text-anchor="middle" x="1445" y="-175.8" font-family="Times,serif" font-size="14.00" fill="#000000">UsuarioModule</text>
</g>
<!-- UsuarioModule&#45;&gt;AppModule -->
<g id="edge13" class="edge">
<title>UsuarioModule&#45;&gt;AppModule</title>
<path fill="none" stroke="#000000" d="M1445,-198.1686C1445,-217.0898 1445,-244 1445,-244 1445,-244 1141.7669,-244 1141.7669,-244"/>
<polygon fill="#000000" stroke="#000000" points="1141.767,-240.5001 1131.7669,-244 1141.7669,-247.5001 1141.767,-240.5001"/>
</g>
<!-- UsuarioComponent  -->
<g id="node29" class="node">
<title>UsuarioComponent </title>
<polygon fill="#fb8072" stroke="#000000" points="1783.6495,-122 1654.3505,-122 1654.3505,-86 1783.6495,-86 1783.6495,-122"/>
<text text-anchor="middle" x="1719" y="-99.8" font-family="Times,serif" font-size="14.00" fill="#000000">UsuarioComponent </text>
</g>
<!-- UsuarioModule&#45;&gt;UsuarioComponent  -->
<g id="edge28" class="edge">
<title>UsuarioModule&#45;&gt;UsuarioComponent </title>
<path fill="none" stroke="#000000" stroke-dasharray="5,2" d="M1494.8098,-161.8757C1494.8098,-147.2168 1494.8098,-129 1494.8098,-129 1494.8098,-129 1668.8484,-129 1668.8484,-129 1668.8484,-129 1668.8484,-128.3169 1668.8484,-128.3169"/>
<polygon fill="#000000" stroke="#000000" points="1672.3485,-132.1686 1668.8484,-122.1686 1665.3485,-132.1687 1672.3485,-132.1686"/>
</g>
<!-- ModalModule -->
<g id="node15" class="node">
<title>ModalModule</title>
<polygon fill="#8dd3c7" stroke="#000000" points="1909.0997,-198 1906.0997,-202 1885.0997,-202 1882.0997,-198 1812.9003,-198 1812.9003,-162 1909.0997,-162 1909.0997,-198"/>
<text text-anchor="middle" x="1861" y="-175.8" font-family="Times,serif" font-size="14.00" fill="#000000">ModalModule</text>
</g>
<!-- ModalModule&#45;&gt;AppModule -->
<g id="edge14" class="edge">
<title>ModalModule&#45;&gt;AppModule</title>
<path fill="none" stroke="#000000" d="M1861,-198.1985C1861,-222.3563 1861,-262 1861,-262 1861,-262 1141.7257,-262 1141.7257,-262"/>
<polygon fill="#000000" stroke="#000000" points="1141.7257,-258.5001 1131.7257,-262 1141.7256,-265.5001 1141.7257,-258.5001"/>
</g>
<!-- ModalComponent  -->
<g id="node25" class="node">
<title>ModalComponent </title>
<polygon fill="#fb8072" stroke="#000000" points="2666.8828,-266 2545.1172,-266 2545.1172,-230 2666.8828,-230 2666.8828,-266"/>
<text text-anchor="middle" x="2606" y="-243.8" font-family="Times,serif" font-size="14.00" fill="#000000">ModalComponent </text>
</g>
<!-- ModalModule&#45;&gt;ModalComponent  -->
<g id="edge24" class="edge">
<title>ModalModule&#45;&gt;ModalComponent </title>
<path fill="none" stroke="#000000" stroke-dasharray="5,2" d="M1909.3075,-186C2074.3956,-186 2606,-186 2606,-186 2606,-186 2606,-219.7333 2606,-219.7333"/>
<polygon fill="#000000" stroke="#000000" points="2602.5001,-219.7333 2606,-229.7333 2609.5001,-219.7333 2602.5001,-219.7333"/>
</g>
<!-- BotaoComponent -->
<g id="node17" class="node">
<title>BotaoComponent</title>
<polygon fill="#ffffb3" stroke="#000000" points="2505.2744,-266 2390.7256,-266 2390.7256,-230 2505.2744,-230 2505.2744,-266"/>
<text text-anchor="middle" x="2448" y="-243.8" font-family="Times,serif" font-size="14.00" fill="#000000">BotaoComponent</text>
</g>
<!-- BotaoComponent&#45;&gt;BotaoModule -->
<g id="edge16" class="edge">
<title>BotaoComponent&#45;&gt;BotaoModule</title>
<path fill="none" stroke="#000000" d="M2448,-229.9445C2448,-218.561 2448,-206 2448,-206 2448,-206 1724.7521,-206 1724.7521,-206 1724.7521,-206 1724.7521,-205.2058 1724.7521,-205.2058"/>
<polygon fill="#000000" stroke="#000000" points="1728.2522,-208.0578 1724.7521,-198.0579 1721.2522,-208.0579 1728.2522,-208.0578"/>
</g>
<!-- LivroComponent -->
<g id="node19" class="node">
<title>LivroComponent</title>
<polygon fill="#ffffb3" stroke="#000000" points="1448.437,-122 1335.563,-122 1335.563,-86 1448.437,-86 1448.437,-122"/>
<text text-anchor="middle" x="1392" y="-99.8" font-family="Times,serif" font-size="14.00" fill="#000000">LivroComponent</text>
</g>
<!-- LivroComponent&#45;&gt;LivroModule -->
<g id="edge18" class="edge">
<title>LivroComponent&#45;&gt;LivroModule</title>
<path fill="none" stroke="#000000" d="M1355.5543,-122.0109C1355.5543,-122.0109 1355.5543,-151.855 1355.5543,-151.855"/>
<polygon fill="#000000" stroke="#000000" points="1352.0544,-151.8549 1355.5543,-161.855 1359.0544,-151.855 1352.0544,-151.8549"/>
</g>
<!-- FiltroPorTitulo -->
<g id="node20" class="node">
<title>FiltroPorTitulo</title>
<polygon fill="#ffffb3" stroke="#000000" points="1317.2828,-122 1216.7172,-122 1216.7172,-86 1317.2828,-86 1317.2828,-122"/>
<text text-anchor="middle" x="1267" y="-99.8" font-family="Times,serif" font-size="14.00" fill="#000000">FiltroPorTitulo</text>
</g>
<!-- FiltroPorTitulo&#45;&gt;LivroModule -->
<g id="edge19" class="edge">
<title>FiltroPorTitulo&#45;&gt;LivroModule</title>
<path fill="none" stroke="#000000" d="M1310.8477,-122.0109C1310.8477,-122.0109 1310.8477,-151.855 1310.8477,-151.855"/>
<polygon fill="#000000" stroke="#000000" points="1307.3478,-151.8549 1310.8477,-161.855 1314.3478,-151.855 1307.3478,-151.8549"/>
</g>
<!-- LivroService -->
<g id="node23" class="node">
<title>LivroService</title>
<ellipse fill="#fdb462" stroke="#000000" cx="870" cy="-104" rx="61.3935" ry="18"/>
<text text-anchor="middle" x="870" y="-99.8" font-family="Times,serif" font-size="14.00" fill="#000000">LivroService</text>
</g>
<!-- LivroService&#45;&gt;LivroModule -->
<g id="edge22" class="edge">
<title>LivroService&#45;&gt;LivroModule</title>
<path fill="none" stroke="#000000" d="M870,-122.1871C870,-137.1824 870,-156 870,-156 870,-156 1291.2168,-156 1291.2168,-156 1291.2168,-156 1291.2168,-156.581 1291.2168,-156.581"/>
<polygon fill="#000000" stroke="#000000" points="1287.717,-151.8097 1291.2168,-161.8097 1294.717,-151.8098 1287.717,-151.8097"/>
</g>
<!-- ModalComponent -->
<g id="node24" class="node">
<title>ModalComponent</title>
<polygon fill="#ffffb3" stroke="#000000" points="2808.8823,-266 2691.1177,-266 2691.1177,-230 2808.8823,-230 2808.8823,-266"/>
<text text-anchor="middle" x="2750" y="-243.8" font-family="Times,serif" font-size="14.00" fill="#000000">ModalComponent</text>
</g>
<!-- ModalComponent&#45;&gt;ModalModule -->
<g id="edge23" class="edge">
<title>ModalComponent&#45;&gt;ModalModule</title>
<path fill="none" stroke="#000000" d="M2750,-229.7079C2750,-207.7943 2750,-174 2750,-174 2750,-174 1919.1117,-174 1919.1117,-174"/>
<polygon fill="#000000" stroke="#000000" points="1919.1117,-170.5001 1909.1117,-174 1919.1117,-177.5001 1919.1117,-170.5001"/>
</g>
<!-- PainelComponent -->
<g id="node26" class="node">
<title>PainelComponent</title>
<polygon fill="#ffffb3" stroke="#000000" points="2209.3259,-266 2092.6741,-266 2092.6741,-230 2209.3259,-230 2209.3259,-266"/>
<text text-anchor="middle" x="2151" y="-243.8" font-family="Times,serif" font-size="14.00" fill="#000000">PainelComponent</text>
</g>
<!-- PainelComponent&#45;&gt;PainelModule -->
<g id="edge25" class="edge">
<title>PainelComponent&#45;&gt;PainelModule</title>
<path fill="none" stroke="#000000" d="M2151,-229.9421C2151,-225.5055 2151,-222 2151,-222 2151,-222 1636,-222 1636,-222 1636,-222 1636,-208.0555 1636,-208.0555"/>
<polygon fill="#000000" stroke="#000000" points="1639.5001,-208.0555 1636,-198.0555 1632.5001,-208.0556 1639.5001,-208.0555"/>
</g>
<!-- UsuarioComponent -->
<g id="node28" class="node">
<title>UsuarioComponent</title>
<polygon fill="#ffffb3" stroke="#000000" points="1933.6499,-122 1808.3501,-122 1808.3501,-86 1933.6499,-86 1933.6499,-122"/>
<text text-anchor="middle" x="1871" y="-99.8" font-family="Times,serif" font-size="14.00" fill="#000000">UsuarioComponent</text>
</g>
<!-- UsuarioComponent&#45;&gt;UsuarioModule -->
<g id="edge27" class="edge">
<title>UsuarioComponent&#45;&gt;UsuarioModule</title>
<path fill="none" stroke="#000000" d="M1861,-122.2434C1861,-129.4297 1861,-136 1861,-136 1861,-136 1492.6862,-136 1492.6862,-136 1492.6862,-136 1492.6862,-151.8495 1492.6862,-151.8495"/>
<polygon fill="#000000" stroke="#000000" points="1489.1863,-151.8494 1492.6862,-161.8495 1496.1863,-151.8495 1489.1863,-151.8494"/>
</g>
<!-- UsuarioService -->
<g id="node30" class="node">
<title>UsuarioService</title>
<ellipse fill="#fdb462" stroke="#000000" cx="1559" cy="-104" rx="70.622" ry="18"/>
<text text-anchor="middle" x="1559" y="-99.8" font-family="Times,serif" font-size="14.00" fill="#000000">UsuarioService</text>
</g>
<!-- UsuarioService&#45;&gt;UsuarioModule -->
<g id="edge29" class="edge">
<title>UsuarioService&#45;&gt;UsuarioModule</title>
<path fill="none" stroke="#000000" d="M1490.5626,-108.5265C1490.5626,-108.5265 1490.5626,-151.6994 1490.5626,-151.6994"/>
<polygon fill="#000000" stroke="#000000" points="1487.0627,-151.6994 1490.5626,-161.6994 1494.0627,-151.6994 1487.0627,-151.6994"/>
</g>
</g>
</svg>
